<svg xmlns="http://www.w3.org/2000/svg" width="22" height="20" viewBox="0 0 22 20">
    <g fill="none" fill-rule="nonzero">
        <path fill="#FBBB00" d="M4.876 12.086l-.766 2.6-2.8.053A9.247 9.247 0 0 1 0 10c0-1.658.444-3.222 1.23-4.599l2.492.415 1.092 2.252a5.457 5.457 0 0 0 .062 4.018z"/>
        <path fill="#518EF8" d="M21.808 8.132a9.13 9.13 0 0 1-.049 3.956c-.535 2.292-1.934 4.294-3.872 5.71h-.001l-3.139-.146-.444-2.52c1.286-.686 2.291-1.76 2.82-3.044h-5.881V8.132H21.808z"/>
        <path fill="#28B446" d="M17.886 17.798C16.001 19.176 13.606 20 11 20c-4.19 0-7.831-2.129-9.69-5.261l3.566-2.653c.929 2.254 3.32 3.859 6.124 3.859a7.007 7.007 0 0 0 3.303-.814l3.583 2.667z"/>
        <path fill="#F14336" d="M18.021 2.302l-3.563 2.652A6.99 6.99 0 0 0 11 4.055c-2.867 0-5.304 1.678-6.186 4.013L1.231 5.401H1.23C3.06 2.192 6.749 0 11 0c2.669 0 5.116.864 7.021 2.302z"/>
    </g>
</svg>
